<svg width="145" height="42" viewBox="0 0 145 42" fill="none" xmlns="http://www.w3.org/2000/svg">
<rect y="0.75" width="40" height="40" rx="8" fill="#0CC2BC"/>
<path d="M18.5858 6.16421C19.3668 5.38316 20.6332 5.38317 21.4142 6.16421L34.5858 19.3358C35.3668 20.1168 35.3668 21.3832 34.5858 22.1642L21.4142 35.3358C20.6332 36.1168 19.3668 36.1168 18.5858 35.3358L5.41421 22.1642C4.63316 21.3832 4.63317 20.1168 5.41421 19.3358L18.5858 6.16421Z" fill="white"/>
<path d="M19.3066 16.4172C19.6938 16.0446 20.3062 16.0446 20.6934 16.4172L26.0062 21.5294C26.6548 22.1536 26.213 23.25 25.3128 23.25H14.6872C13.787 23.25 13.3452 22.1536 13.9938 21.5294L19.3066 16.4172Z" fill="#0CC2BC"/>
<path d="M64.68 16.57H55.41V20.32H63.33V25H55.41V33.25H50.16V11.89H64.68V16.57ZM83.8711 25.75C83.8711 28.03 83.0811 29.88 81.5011 31.3C79.9411 32.72 78.0211 33.43 75.7411 33.43C73.4611 33.43 71.5611 32.74 70.0411 31.36C68.4611 29.92 67.6711 28.05 67.6711 25.75V11.89H72.9211V25.63C72.9211 26.61 73.1611 27.38 73.6411 27.94C74.1411 28.48 74.8411 28.75 75.7411 28.75C76.6211 28.75 77.3211 28.48 77.8411 27.94C78.3611 27.4 78.6211 26.63 78.6211 25.63V11.89H83.8711V25.75ZM104.516 33.25H99.9258L93.0858 22.51V33.25H87.8358V11.89H92.4258L99.2658 22.63V11.89H104.516V33.25ZM124.352 26.47C123.972 28.75 123.032 30.5 121.532 31.72C120.132 32.86 118.372 33.43 116.252 33.43C113.892 33.43 111.912 32.63 110.312 31.03C109.312 30.03 108.672 28.74 108.392 27.16C108.232 26.28 108.152 24.75 108.152 22.57C108.152 20.29 108.222 18.76 108.362 17.98C108.642 16.42 109.292 15.13 110.312 14.11C111.092 13.33 111.972 12.74 112.952 12.34C113.952 11.92 115.052 11.71 116.252 11.71C118.352 11.71 120.112 12.28 121.532 13.42C123.032 14.64 123.972 16.39 124.352 18.67H119.012C118.812 17.95 118.542 17.42 118.202 17.08C117.742 16.62 117.102 16.39 116.282 16.39C115.802 16.39 115.392 16.47 115.052 16.63C114.712 16.77 114.422 17 114.182 17.32C113.942 17.64 113.752 18.16 113.612 18.88C113.472 19.58 113.402 20.81 113.402 22.57C113.402 24.39 113.462 25.63 113.582 26.29C113.702 26.93 113.912 27.45 114.212 27.85C114.672 28.45 115.362 28.75 116.282 28.75C117.082 28.75 117.712 28.52 118.172 28.06C118.532 27.7 118.812 27.17 119.012 26.47H124.352ZM142.693 22.57C142.693 24.85 142.623 26.38 142.483 27.16C142.203 28.72 141.553 30.01 140.533 31.03C139.733 31.83 138.853 32.43 137.893 32.83C136.933 33.23 135.823 33.43 134.563 33.43C132.183 33.43 130.193 32.63 128.593 31.03C127.593 30.03 126.953 28.74 126.673 27.16C126.513 26.28 126.433 24.75 126.433 22.57C126.433 20.29 126.503 18.76 126.643 17.98C126.923 16.42 127.573 15.13 128.593 14.11C129.393 13.31 130.273 12.71 131.233 12.31C132.193 11.91 133.303 11.71 134.563 11.71C136.943 11.71 138.933 12.51 140.533 14.11C141.533 15.11 142.173 16.4 142.453 17.98C142.613 18.86 142.693 20.39 142.693 22.57ZM137.443 22.57C137.443 20.79 137.383 19.56 137.263 18.88C137.143 18.2 136.943 17.68 136.663 17.32C136.463 17.04 136.173 16.82 135.793 16.66C135.433 16.48 135.023 16.39 134.563 16.39C134.103 16.39 133.693 16.48 133.333 16.66C132.973 16.82 132.683 17.04 132.463 17.32C132.183 17.68 131.983 18.2 131.863 18.88C131.743 19.54 131.683 20.77 131.683 22.57C131.683 24.37 131.743 25.6 131.863 26.26C131.983 26.92 132.183 27.43 132.463 27.79C132.663 28.05 132.953 28.28 133.333 28.48C133.713 28.66 134.123 28.75 134.563 28.75C135.483 28.75 136.183 28.43 136.663 27.79C136.943 27.43 137.143 26.92 137.263 26.26C137.383 25.6 137.443 24.37 137.443 22.57Z" fill="#1D1D1D"/>
</svg>
