<svg width="25" height="24" viewBox="0 0 25 24" fill="none" xmlns="http://www.w3.org/2000/svg">
<path fill-rule="evenodd" clip-rule="evenodd" d="M8.79158 10.2929C8.60477 10.4818 8.5 10.7368 8.5 11.0024C8.5 11.2681 8.60477 11.523 8.79158 11.7119L11.7306 14.6769C11.9486 14.8919 12.2306 14.9989 12.5096 14.9989C12.7886 14.9989 13.0656 14.8919 13.2786 14.6769L16.2086 11.7219C16.3951 11.5329 16.4998 11.278 16.4998 11.0124C16.4998 10.7469 16.3951 10.492 16.2086 10.3029C16.1167 10.2098 16.0073 10.1358 15.8866 10.0853C15.7659 10.0347 15.6364 10.0087 15.5056 10.0087C15.3748 10.0087 15.2452 10.0347 15.1245 10.0853C15.0039 10.1358 14.8944 10.2098 14.8026 10.3029L12.5046 12.6199L10.1976 10.2929C10.1055 10.2001 9.99604 10.1264 9.87538 10.0762C9.75472 10.0259 9.6253 10 9.49458 10C9.36386 10 9.23444 10.0259 9.11378 10.0762C8.99312 10.1264 8.88362 10.2001 8.79158 10.2929Z" fill="#999999"/>
</svg>
