<svg width="33" height="32" viewBox="0 0 33 32" fill="none" xmlns="http://www.w3.org/2000/svg">
<path fill-rule="evenodd" clip-rule="evenodd" d="M13.5037 14.9951L18.0967 10.4021C18.1883 10.3086 18.2975 10.2342 18.418 10.1832C18.5385 10.1322 18.6679 10.1057 18.7988 10.105C18.9296 10.1043 19.0593 10.1296 19.1803 10.1794C19.3014 10.2292 19.4113 10.3024 19.5038 10.3949C19.5964 10.4875 19.6696 10.5974 19.7194 10.7184C19.7692 10.8395 19.7944 10.9691 19.7938 11.1C19.7931 11.2308 19.7665 11.3602 19.7155 11.4808C19.6646 11.6013 19.5902 11.7105 19.4967 11.8021L15.5967 15.7021L19.4967 19.6021C19.6793 19.7883 19.781 20.0392 19.7796 20.3C19.7783 20.5608 19.6741 20.8106 19.4897 20.995C19.3053 21.1795 19.0555 21.2837 18.7947 21.285C18.5338 21.2863 18.283 21.1846 18.0967 21.0021L13.5037 16.4101C13.3163 16.2225 13.2109 15.9682 13.2109 15.7031C13.2109 15.4379 13.3163 15.1836 13.5037 14.9961V14.9951Z" fill="#666666"/>
</svg>
