<svg width="33" height="32" viewBox="0 0 33 32" fill="none" xmlns="http://www.w3.org/2000/svg">
<path fill-rule="evenodd" clip-rule="evenodd" d="M19.4947 14.9951C19.6821 15.1826 19.7875 15.4369 19.7875 15.7021C19.7875 15.9672 19.6821 16.2215 19.4947 16.4091L14.9017 21.0021C14.7154 21.1846 14.4646 21.2863 14.2037 21.285C13.9429 21.2837 13.6932 21.1795 13.5087 20.995C13.3243 20.8106 13.2201 20.5608 13.2188 20.3C13.2174 20.0392 13.3191 19.7884 13.5017 19.6021L17.4017 15.7021L13.5017 11.8021C13.3191 11.6158 13.2174 11.365 13.2188 11.1041C13.2201 10.8433 13.3243 10.5935 13.5087 10.4091C13.6932 10.2247 13.9429 10.1205 14.2037 10.1192C14.4646 10.1178 14.7154 10.2195 14.9017 10.4021L19.4947 14.9951Z" fill="#666666"/>
</svg>
